<svg width="159" height="152" viewBox="0 0 159 152" fill="none" xmlns="http://www.w3.org/2000/svg">
<g filter="url(#filter0_d)">
<path d="M54.812 28.7959L78.6067 163.743" stroke="url(#paint0_linear)" stroke-width="8" stroke-linecap="round"/>
<path fill-rule="evenodd" clip-rule="evenodd" d="M144.776 12.9327L168.571 147.879L50.5883 168.683C49.5005 168.875 48.4632 168.148 48.2714 167.061L25.1713 36.0532C24.9795 34.9654 25.7058 33.9281 26.7936 33.7363L144.776 12.9327Z" stroke="url(#paint1_linear)" stroke-width="8" stroke-linecap="round" stroke-linejoin="round"/>
<path d="M73.319 133.755C70.6751 118.76 96.1059 116.853 104.339 105.094C108.456 99.2151 93.462 101.859 89.0556 76.8688C86.1183 60.2104 91.3115 50.704 104.641 48.3536C117.971 46.0032 126.102 53.1601 129.04 69.8186C133.446 94.8087 118.452 97.4525 124.331 101.569C136.09 109.803 160.64 102.897 163.283 117.891" stroke="url(#paint2_linear)" stroke-width="8" stroke-linecap="round"/>
</g>
<defs>
<filter id="filter0_d" x="0.190186" y="0.298889" width="183.015" height="195.365" filterUnits="userSpaceOnUse" color-interpolation-filters="sRGB">
<feFlood flood-opacity="0" result="BackgroundImageFix"/>
<feColorMatrix in="SourceAlpha" type="matrix" values="0 0 0 0 0 0 0 0 0 0 0 0 0 0 0 0 0 0 127 0"/>
<feOffset dx="-5" dy="7"/>
<feGaussianBlur stdDeviation="7.5"/>
<feColorMatrix type="matrix" values="0 0 0 0 0.564706 0 0 0 0 0.796078 0 0 0 0 0.976471 0 0 0 0.2 0"/>
<feBlend mode="normal" in2="BackgroundImageFix" result="effect1_dropShadow"/>
<feBlend mode="normal" in="SourceGraphic" in2="effect1_dropShadow" result="shape"/>
</filter>
<linearGradient id="paint0_linear" x1="54.812" y1="28.7959" x2="78.6067" y2="163.743" gradientUnits="userSpaceOnUse">
<stop offset="0.270833" stop-color="#C8E5FC"/>
<stop offset="1" stop-color="#C8E5FC" stop-opacity="0.25"/>
</linearGradient>
<linearGradient id="paint1_linear" x1="84.8003" y1="23.5081" x2="108.595" y2="158.455" gradientUnits="userSpaceOnUse">
<stop offset="0.270833" stop-color="#C8E5FC"/>
<stop offset="1" stop-color="#C8E5FC" stop-opacity="0.25"/>
</linearGradient>
<linearGradient id="paint2_linear" x1="104.641" y1="48.3536" x2="118.301" y2="125.823" gradientUnits="userSpaceOnUse">
<stop offset="0.270833" stop-color="#C8E5FC"/>
<stop offset="1" stop-color="#C8E5FC" stop-opacity="0.25"/>
</linearGradient>
</defs>
</svg>
